# xmcd CD database file
#
# Track frame offsets:
#	150
#	22952
#	44828
#	66273
#	84894
#	110466
#	132661
#	151582
#	169131
#	189341
#
# Disc length: 2853 seconds
#
# Revision: 1
# Processed by: cddbd v1.5.1PL0 Copyright (c) Steve Scherf et al.
# Submitted via: CDex 1.51
#
DISCID=7d0b230a
DTITLE=The Funky Lowlives - Somewhere Else Is Here
DYEAR=2005
DGENRE=Downtempo
TTITLE0=Sail Into The Sun
TTITLE1=Time To Let You Go
TTITLE2=Superlove
TTITLE3=For Her Eyes
TTITLE4='Til I Left The Music
TTITLE5=You Have To Come With Me
TTITLE6=Float Through Stars
TTITLE7=Time Traveller Man
TTITLE8=Another Place
TTITLE9=Here Is Somewhere Else
EXTD=YEAR: 2005
EXTT0=
EXTT1=
EXTT2=
EXTT3=
EXTT4=
EXTT5=
EXTT6=
EXTT7=
EXTT8=
EXTT9=
PLAYORDER=
